<svg width="29" height="28" viewBox="0 0 29 28" fill="none" xmlns="http://www.w3.org/2000/svg">
<path d="M21.7703 4.65876C21.1679 4.07028 20.5779 3.49582 19.9915 2.92135C19.7249 2.66039 19.4779 2.39242 19.5988 1.96858C19.7249 1.52722 20.043 1.35908 20.4731 1.28027C22.7405 0.866932 25.0045 0.436081 27.272 0.0192428C27.9934 -0.112114 28.5248 0.450093 28.3862 1.19094C28.0894 2.78124 27.7802 4.36978 27.4781 5.95832C27.3644 6.55906 27.2489 7.16155 27.1387 7.76404C27.0641 8.16686 26.9432 8.52415 26.4847 8.66427C26.0263 8.80438 25.726 8.58195 25.4327 8.28596C24.8552 7.70274 24.267 7.13002 23.6682 6.53804C23.5349 6.66239 23.4265 6.76047 23.3234 6.86205C18.9679 11.153 14.616 15.4475 10.2534 19.7333C10.0028 19.9785 9.9264 20.1921 10.0188 20.5319C10.2249 21.2763 10.3653 22.0381 10.5715 22.7825C10.7207 23.3219 10.5892 23.7755 10.2161 24.1504C9.06454 25.3063 7.90947 26.4587 6.72953 27.5849C5.95119 28.3275 4.78546 27.986 4.50291 26.9614C4.29855 26.217 4.08175 25.4727 3.91294 24.7196C3.83475 24.3675 3.65704 24.2187 3.31585 24.1433C2.59616 23.984 1.88179 23.7913 1.16743 23.6039C-0.0587223 23.2834 -0.366148 22.166 0.533028 21.2675C1.63479 20.1659 2.75254 19.08 3.85962 17.9836C4.2328 17.614 4.66995 17.4617 5.19062 17.5773C6.04181 17.7647 6.88768 17.9713 7.74243 18.1412C7.89881 18.1727 8.13871 18.1307 8.24355 18.0274C12.7234 13.6313 17.1909 9.22297 21.6601 4.81639C21.6903 4.78662 21.7099 4.74633 21.7721 4.65701L21.7703 4.65876Z" fill="#F2F2F2"/>
<path d="M22.7174 10.1477C23.4549 11.3019 24.0484 12.6085 24.4021 14.0166C25.3457 17.7734 24.8392 21.3323 22.8578 24.6775C22.7103 24.9262 22.6659 25.1031 22.8294 25.3798C23.2825 26.1452 23.1048 27.098 22.4669 27.6024C21.7721 28.1524 20.7094 28.1401 20.0626 27.5043C17.5694 25.0523 15.0958 22.5793 12.615 20.1151C12.5848 20.0853 12.5688 20.0415 12.5564 20.0205C13.3667 19.2201 14.1699 18.4267 14.9785 17.628C16.6258 19.2586 18.282 20.898 20.0004 22.5986C20.1212 22.3762 20.1994 22.2483 20.2634 22.1134C21.701 19.0765 21.6957 16.029 20.3007 12.9868C20.1496 12.6558 20.1816 12.4736 20.4411 12.2442C21.2052 11.5611 21.9516 10.857 22.7157 10.1495L22.7174 10.1477Z" fill="#F2F2F2"/>
<path d="M18.1931 5.66058C17.3242 6.51702 16.4872 7.34019 15.6253 8.18788C12.3023 6.56781 8.94193 6.57132 5.54958 8.2159C7.2502 9.88851 8.91172 11.5226 10.5341 13.1199C9.67406 13.9676 8.86374 14.768 8.03564 15.5859C8.0392 15.5894 7.96989 15.5386 7.90947 15.4791C5.49271 13.1164 3.07596 10.7537 0.660974 8.39104C0.078109 7.82008 -0.172452 7.15454 0.127866 6.36465C0.518812 5.34007 1.68454 4.94775 2.701 5.52221C2.97644 5.67809 3.15059 5.65357 3.40648 5.5082C8.18669 2.81276 12.9882 2.83553 17.8022 5.42413C17.9301 5.49244 18.051 5.57476 18.1914 5.66233L18.1931 5.66058Z" fill="#F2F2F2"/>
</svg>
